<svg viewBox="0 0 1024 1024" xmlns="http://www.w3.org/2000/svg" width="24" height="24">
  <path d="M946.5 505L560.1 118.8l-25.9-25.9a31.5 31.5 0 0 0-44.4 0L77.5 505a63.9 63.9 0 0 0-18.8 44.4c0 35.2 28.5 63.7 63.7 63.7H188v270.8c0 44.3 35.9 80.2 80.2 80.2H755.8c44.3 0 80.2-35.9 80.2-80.2V613.1h65.6c35.2 0 63.7-28.5 63.7-63.7 0-16.9-6.7-33.1-18.8-44.4zM568 832H456V704h112v128z m139.9 0H632V678.2c0-26.5-21.5-48-48-48H440c-26.5 0-48 21.5-48 48V832H267.9V586.8L512 342.7l244.1 244.1V832z" fill="currentColor"/>
</svg>